<?xml version="1.0" encoding="utf-8"?>
<!-- Generator: Adobe Illustrator 19.0.0, SVG Export Plug-In . SVG Version: 6.00 Build 0)  -->
<svg version="1.1" id="Layer_1" xmlns="http://www.w3.org/2000/svg" xmlns:xlink="http://www.w3.org/1999/xlink" x="0px" y="0px"
	 viewBox="0 0 792 792" style="enable-background:new 0 0 792 792;" xml:space="preserve">
<style type="text/css">
	.st0{fill:#BDDEF5;}
	.st1{fill:#256755;}
	.st2{fill:#40907A;}
	.st3{fill:#98CB59;}
	.st4{fill:#F7C545;}
	.st5{fill:#F19934;}
	.st6{fill:#96C5E4;}
	.st7{fill:#0E78BE;}
	.st8{fill:#095B99;}
	.st9{fill:#117ABF;}
	.st10{fill:#ED9632;}
	.st11{fill:#40907A;stroke:#40907A;stroke-width:3;stroke-miterlimit:10;}
</style>
<g id="XMLID_2_">
	<g id="XMLID_14_">
		<path id="XMLID_38_" class="st0" d="M194.1,342.2c0.1,0.3,2.9,9.3,2.9,19.6c0,4.5-0.5,8.9-1.4,13.3c-5.3,25.7-26.9,42.5-51.6,48.3
			c-18.9,4.4-39.4,3.8-58.7,3.4c-10.5-0.2-21.9-2.1-31.6,3.1c3.2-1.7,15.6-8.3,19.2-9c3.6-0.6,105.2,4.2,112.7-47.5
			c0.5-3.7,0.7-7.5,0.5-11.3c-0.1-1.9-0.3-3.8-0.6-5.6c-0.1-0.9-0.3-1.8-0.5-2.8c-0.1-0.4-0.2-0.9-0.3-1.3l-0.2-0.6l-0.1-0.3
			c0-0.1-0.1-0.2-0.1-0.2L194.1,342.2z"/>
		<path id="XMLID_37_" class="st0" d="M57.3,393.5c0.8-2.6,1.9-5.2,3.1-7.7c1.2-2.5,2.5-4.9,3.9-7.3c2.8-4.8,6.1-9.3,9.7-13.6
			c3.6-4.3,7.6-8.3,12.1-11.8c2.2-1.8,4.6-3.4,7-5c2.5-1.5,5-2.9,7.7-4c1.3-0.6,2.7-1.1,4.1-1.6l0.5-0.2l0.5-0.2l1.1-0.3l1.1-0.3
			c0.4-0.1,0.7-0.2,1.1-0.3l2.2-0.5c0.4-0.1,0.7-0.2,1.1-0.2l1-0.2l3.9-0.8l15.8-3.1c5.3-1.1,10.5-2.1,15.8-3.2l2-0.4
			c0.7-0.1,1.3-0.3,2-0.4l4-0.8l8-1.7c-2.3,1.6-4.7,3-7.1,4.3c-2.4,1.3-4.9,2.5-7.4,3.7c-5,2.3-10.1,4.3-15.3,6.1
			c-5.2,1.8-10.4,3.4-15.7,4.8l-4,1l-1,0.2c-0.3,0.1-0.6,0.2-0.9,0.2l-1.8,0.5c-0.6,0.2-1.2,0.4-1.8,0.6l-0.9,0.3l-0.4,0.1l-0.4,0.2
			c-1.2,0.5-2.3,0.9-3.4,1.4c-0.6,0.3-1.1,0.5-1.7,0.8l-1.7,0.8l-0.8,0.4l-0.8,0.5l-1.7,0.9c-2.2,1.3-4.3,2.6-6.4,4.1
			c-4.2,2.9-8.2,6.2-12.2,9.7c-3.9,3.5-7.7,7.2-11.4,11.1C64.4,385.3,60.8,389.3,57.3,393.5z"/>
		<path id="XMLID_36_" class="st1" d="M236.1,272.7l23.5,11.2c-47,11.6-97.4,81.3-113.8,85c-51.5,11.6-97.3,49.9-97.3,49.9
			c41.1-48.1,86.6-52,97.3-62.1C156.5,346.6,218,267,236.1,272.7z"/>
		<path id="XMLID_35_" class="st2" d="M203.6,381.3c-4.6-1.5-8.8-3.3-12.5-5.2c-11.1-5.7-18.4-13.1-23.3-20.5
			c-3-4.6-5.1-9.2-6.6-13.4c-0.1-0.4-0.3-0.8-0.4-1.1c-0.9-2.7-1.5-5.3-1.9-7.8c-1.4-8-1.1-14.9-0.8-18c4.5,0.1,9.4,1.4,14.6,1.7
			c0,0.1-0.7,3.7,0,10c0.3,3.1,1,6.7,2.2,10.4c0.8,2.4,1.8,4.7,2.9,6.9c3.1,5.9,7.5,10.9,13.1,15c3.9,2.8,8.3,5.2,13.3,7.1
			C205.8,373.7,203.6,381.3,203.6,381.3z"/>
		<path id="XMLID_34_" class="st3" d="M198.1,404.2L198.1,404.2c-1.9,5.1-4.3,9.6-7.1,13.6c-2.8-3-7.8-8.1-15.4-14.7
			c-5.3-4.7-12-10.1-20-16.1c-5.7-4.3-10.5-9.8-14.2-16.5c-1.2-2.1-2.3-4.4-3.2-6.8c-2.8-6.8-4.6-14.6-5.5-23.1
			c-0.1-0.7-0.1-1.4-0.2-2.1c-0.9-10.9,0-20.5,0.7-25.5c4.4-0.1,9.3,0.1,14.6,0.3c-0.5,3.3-1.6,12.5-0.9,23.1
			c0.4,5.8,1.4,12.1,3.3,18.1c1.2,3.6,2.7,7.1,4.7,10.4c2.4,3.9,5.5,7.5,9.3,10.4c7.9,5.9,14.6,11.3,20,16
			C190.2,396.5,194.8,400.9,198.1,404.2z"/>
		<path id="XMLID_33_" class="st4" d="M184.2,425.5c-4.5,4.2-9.8,7.6-15.8,10.2c-3.6-3.1-9.9-8.3-20.5-16c-4-2.9-8.6-6.2-13.8-9.8
			c-11.2-7.7-18.9-16.5-24.3-25.5c-1.8-3-3.3-5.9-4.6-8.9c-3.7-8.4-5.8-16.8-7.1-24.5c-0.8-5-1.4-9.7-1.9-13.9
			c-0.7-5.9-1.3-11.5-2.5-14.9c5-3,10.4-5.2,16.9-6.7c2.1,5.5,2.8,12.1,3.7,19.5c0.4,3.2,0.7,6.4,1.2,9.8c1.2,7.9,3,16.3,6.8,24.4
			c1.2,2.5,2.6,5.1,4.2,7.6v0c4.2,6.4,9.9,12.6,18,18.2c9,6.2,16.2,11.5,21.9,15.7C176.5,418.4,181.8,423.1,184.2,425.5z"/>
		<path id="XMLID_32_" class="st5" d="M148.2,441.3L148.2,441.3l1.3-0.3c-8.3-4.9-16-10.8-23.2-17.5c-5.1-4.8-9.9-10-14.4-15.6
			c-4.6-5.8-8.8-12-12.8-18.6c-1.7-2.9-3.3-5.8-4.9-8.9c-1.6-3.2-3.2-6.4-4.7-9.8c-1.7-3.9-3.2-7.6-4.4-11c-6-17-5.6-26.8-5.6-26.8
			s-11.6,8.1-13.8,14.5c0,0-0.3,4.7,6.7,24.6c0.5,1.3,1.1,2.6,1.8,4.1c1.9,4.3,3.9,8.4,6.1,12.5c1.4,2.6,2.8,5.1,4.3,7.6
			c4.3,7.3,8.9,14.1,13.9,20.4c2.3,2.9,4.9,5.7,7.6,8.4c7.8,7.8,16.4,14.3,21,17.5h0L148.2,441.3z"/>
		<path id="XMLID_31_" class="st6" d="M92,442c-8.2,0.2-15.7,0.5-22.4,1.1c-0.2-5.1-1.5-10.8-3.7-17c-1.9-5.3-4.5-10.9-7.8-16.8
			c-0.1-0.1-0.1-0.2-0.2-0.3c-1.1-2-2.3-4.1-3.6-6.2c-4.7-7.5-9.4-13.8-12.5-17.8c0,0,6.1-11.8,10-16.4c0,0,4.6,7.7,10.2,17.4
			c2.2,3.7,4.5,7.8,6.8,11.8c0.9,1.6,1.9,3.3,2.8,4.9c6,10.5,11.3,20.1,12.5,23.1c0,0,0,0,0,0C86.5,431.6,89.9,437,92,442z"/>
		<path id="XMLID_30_" class="st7" d="M36.2,396.4c10.7,10.8,15.3,23.9,17.3,33.7c1.7,8.6,1.4,14.8,1.4,14.8l-14.9,3.3
			c0-0.3,6.4-15.6-10.3-37.2L36.2,396.4z"/>
		<polygon id="XMLID_29_" class="st8" points="26.6,432.5 9,464.3 30.9,452.2 		"/>
		<g id="XMLID_15_">
			<path id="XMLID_28_" class="st9" d="M394.9,383.7h-50.7c-4,0-7.2-3.2-7.2-7.2c0-4,3.2-7.2,7.2-7.2h50.7c4,0,7.2,3.2,7.2,7.2
				C402.1,380.4,398.9,383.7,394.9,383.7z"/>
			<path id="XMLID_27_" class="st9" d="M338.7,449.2h-40.1c-4,0-7.2-3.2-7.2-7.2v-64.7c0-4,3.2-7.2,7.2-7.2s7.2,3.2,7.2,7.2v57.5
				h32.9c4,0,7.2,3.2,7.2,7.2S342.7,449.2,338.7,449.2z"/>
			<path id="XMLID_26_" class="st9" d="M369.5,448.6c-4,0-7.2-3.2-7.2-7.2v-63.5c0-4,3.2-7.2,7.2-7.2c4,0,7.2,3.2,7.2,7.2v63.5
				C376.8,445.4,373.5,448.6,369.5,448.6z"/>
			<path id="XMLID_25_" class="st9" d="M471.9,449.2h-50.8c-4,0-7.2-3.2-7.2-7.2v-65.5c0-4,3.2-7.2,7.2-7.2H471c4,0,7.2,3.2,7.2,7.2
				c0,4-3.2,7.2-7.2,7.2h-42.6v51.1h43.5c4,0,7.2,3.2,7.2,7.2S475.9,449.2,471.9,449.2z"/>
			<path id="XMLID_24_" class="st9" d="M460.5,416.4h-39.7c-4,0-7.2-3.2-7.2-7.2s3.2-7.2,7.2-7.2h39.7c4,0,7.2,3.2,7.2,7.2
				C467.7,413.2,464.5,416.4,460.5,416.4z"/>
			<path id="XMLID_21_" class="st9" d="M496.5,448.8c-4,0-7.2-3.2-7.2-7.2v-28.7c0,0,0,0,0,0v-36.4c0-4,3.2-7.2,7.2-7.2H524
				c14,0,25.3,11.4,25.3,25.3c0,6.7-2.6,13.1-7.3,17.8c-4.7,4.8-11,7.4-17.8,7.5l-20.5,0.2v21.5
				C503.7,445.6,500.5,448.8,496.5,448.8z M503.7,383.7v21.9l20.4-0.2c5.9-0.1,10.7-4.9,10.7-10.8c0-6-4.9-10.8-10.8-10.8H503.7z"/>
			<path id="XMLID_20_" class="st9" d="M546.2,449.4c-2.4,0-4.7-1.2-6.1-3.3c-12.1-18.8-21.1-28.4-21.1-28.5
				c-2.8-2.9-2.6-7.5,0.2-10.2s7.5-2.7,10.2,0.2c0.4,0.4,10,10.5,22.9,30.7c2.2,3.4,1.2,7.9-2.2,10
				C548.9,449,547.5,449.4,546.2,449.4z"/>
			<path id="XMLID_17_" class="st10" d="M249.6,450.8c-0.4,0-0.8,0-1.2,0c-10-0.4-19.1-5.6-23.7-14.2c-6.5-12.3-6-26.3,0.1-36.5
				c2.5-4.1,5.8-7.3,9.9-9.6c4.3-2.4,9.2-3.6,14.7-3.6c9.9,0,17.5,3,22.5,9c7.8,9.3,5.6,21.9,5.5,22.5c-0.5,2.9-3.1,5.1-6,5.1h-38
				c0.6,2.5,1.2,5.1,2.5,7.5c3.2,6.1,9,7.6,13,7.7c6.5,0.2,13.6-3,16.4-7.5c1.8-2.9,5.6-3.7,8.4-1.9c2.9,1.8,3.7,5.6,1.9,8.4
				c-2.6,4.1-6.6,7.5-11.7,9.9C259.5,449.7,254.5,450.8,249.6,450.8z M233.4,411h32c-0.3-2.4-1-5.2-2.9-7.5c-2.6-3-7-4.5-13.1-4.5
				c-6.4,0-11.2,2.5-14.1,7.3C234.4,407.8,233.8,409.3,233.4,411z"/>
			<path id="XMLID_16_" class="st9" d="M369.5,448.6c-4,0-7.2-3.2-7.2-7.2v-63.5c0-4,3.2-7.2,7.2-7.2c4,0,7.2,3.2,7.2,7.2v63.5
				C376.8,445.4,373.5,448.6,369.5,448.6z"/>
		</g>
	</g>
	<g id="XMLID_3_">
		<path id="XMLID_13_" class="st11" d="M719.2,449h-19.6c-11.7,0-21.1-9.5-21.1-21.1v-34.6c0-3.1,2.4-5.7,5.4-5.8
			c3.2-0.1,5.8,2.4,5.8,5.6v29.1c0,8.6,6.9,15.5,15.5,15.5H719c3,0,5.7,2.4,5.8,5.4C724.9,446.4,722.4,449,719.2,449"/>
		<path id="XMLID_12_" class="st11" d="M719.3,449c-3.2,0-5.7-2.6-5.7-5.7v-50.1c0-3.2,2.6-5.7,5.7-5.7c3.2,0,5.7,2.6,5.7,5.7v50.1
			C725,446.5,722.5,449,719.3,449"/>
		<path id="XMLID_9_" class="st11" d="M585.2,397.8v17.2l16.1-0.1c4.7,0,8.5-3.9,8.5-8.6c0-4.7-3.8-8.6-8.6-8.6H585.2z M579.5,449.2
			c-3.2,0-5.7-2.6-5.7-5.7v-22.6v0v-28.7c0-3.2,2.6-5.7,5.7-5.7h21.7c11,0,20,9,20,20c0,5.3-2.1,10.3-5.8,14.1
			c-3.7,3.8-8.7,5.9-14,5.9l-16.2,0.1v17C585.2,446.6,582.7,449.2,579.5,449.2"/>
		<path id="XMLID_6_" class="st11" d="M585.2,397.8v17.2l16.1-0.1c4.7,0,8.5-3.9,8.5-8.6c0-4.7-3.8-8.6-8.6-8.6H585.2z M579.5,449.2
			c-3.2,0-5.7-2.6-5.7-5.7v-22.6v0v-28.7c0-3.2,2.6-5.7,5.7-5.7h21.7c11,0,20,9,20,20c0,5.3-2.1,10.3-5.8,14.1
			c-3.7,3.8-8.7,5.9-14,5.9l-16.2,0.1v17C585.2,446.6,582.7,449.2,579.5,449.2"/>
		<path id="XMLID_5_" class="st11" d="M667.8,449h-31.1c-3.1,0-5.6-2.5-5.6-5.6v-50.3c0-3.1,2.5-5.6,5.6-5.6c3.1,0,5.6,2.5,5.6,5.6
			v44.6h25.5c3.1,0,5.6,2.5,5.6,5.6C673.4,446.5,670.9,449,667.8,449"/>
		<path id="XMLID_4_" class="st11" d="M761.6,449.2h-19.8c-3.2,0-5.7-2.6-5.7-5.7c0-3.2,2.6-5.7,5.7-5.7h19.8c4,0,7.3-3.3,7.3-7.3
			c0-4-3.3-7.3-7.3-7.3h-9.1c-10,0-18.2-8.1-18.2-18.2s8.1-18.2,18.2-18.2h18.1c3.2,0,5.7,2.6,5.7,5.7c0,3.2-2.6,5.7-5.7,5.7h-18.1
			c-3.7,0-6.7,3-6.7,6.7c0,3.7,3,6.7,6.7,6.7h9.1c10.3,0,18.7,8.4,18.7,18.7C780.3,440.8,771.9,449.2,761.6,449.2"/>
	</g>
</g>
</svg>
